<svg width="1825" height="193" viewBox="0 0 1825 193" fill="none" xmlns="http://www.w3.org/2000/svg">
<path d="M13 137.252C78.5355 111.934 139.046 78.0954 204.029 51.7145C236.652 38.4706 270.411 25.6356 305.656 17.8805C318.029 15.1581 353.037 6.80267 361.388 21.2492C366.539 30.1606 363.731 44.9696 363.16 54.2045C362.116 71.0883 359.297 87.6338 355.983 104.296C353.639 116.08 348.424 131.265 353.059 143.257C359.177 159.082 383.417 156.32 398.07 152.924C423.537 147.02 447.692 135.796 470.901 125.681C504.165 111.184 536.901 95.9017 569.605 80.5687C594.382 68.9526 618.905 56.7199 644.741 46.7346C660.472 40.6547 681.458 32.2326 699.586 34.2116C712.209 35.5895 716.69 44.0406 719.345 53.4721C725.517 75.3951 723.249 98.5724 725.37 120.847C726.675 134.549 728.413 149.452 736.711 161.712C747.98 178.361 770.494 182.307 791.911 178.849C824.845 173.529 855.349 158.501 883.793 144.575C913.734 129.916 942.318 113.397 970.978 97.1195C1000.45 80.3812 1029.8 63.2069 1060.64 48.1993C1079.76 38.8979 1106.75 24.1954 1130.11 33.1131C1164.19 46.1207 1167.15 81.6437 1180.26 106.493C1186.71 118.72 1195.58 129.117 1209.68 136.007C1232.98 147.401 1255.99 138.844 1277.9 129.269C1325.54 108.449 1365.79 76.6272 1415.5 59.0379C1461.96 42.6015 1529.78 29.1841 1571.53 60.6491C1585.87 71.4526 1595.58 85.9394 1606.09 99.1701C1614.87 110.242 1627.37 131.348 1647.38 128.83C1670.14 125.964 1692.46 109.218 1709.4 97.9983C1745.8 73.8882 1778.38 46.5397 1812 19.931" stroke="#F2EEEB" stroke-width="25" stroke-linecap="round"/>
</svg>
